<svg width="19" height="19" fill="none" xmlns="http://www.w3.org/2000/svg"><g opacity=".2" clip-path="url(#a)" stroke="#fff" stroke-width="1.525" stroke-linecap="round" stroke-linejoin="round"><path d="M15.917 7.541H8.874c-.865 0-1.565.7-1.565 1.565v7.044c0 .864.7 1.565 1.565 1.565h7.043c.865 0 1.566-.7 1.566-1.565V9.106c0-.864-.701-1.565-1.566-1.565Z"/><path d="M4.179 12.236h-.783a1.565 1.565 0 0 1-1.565-1.565V3.628a1.565 1.565 0 0 1 1.565-1.566h7.044a1.565 1.565 0 0 1 1.565 1.566v.782"/></g><defs><clipPath id="a"><path fill="#fff" transform="translate(.588 .92)" d="M0 0h18v18H0z"/></clipPath></defs></svg>